<svg xmlns="http://www.w3.org/2000/svg" version="1.1" xmlns:xlink="http://www.w3.org/1999/xlink" xmlns:svgjs="http://svgjs.dev/svgjs" width="1000" height="1000" viewBox="0 0 1000 1000"><rect width="1000" height="1000" fill="#0dcaf0"></rect><g transform="matrix(0.7,0,0,0.7,149.63231168150685,248.90348364421152)"><svg viewBox="0 0 344 247" data-background-color="#0dcaf0" preserveAspectRatio="xMidYMid meet" height="718" width="1000" xmlns="http://www.w3.org/2000/svg" xmlns:xlink="http://www.w3.org/1999/xlink"><g id="tight-bounds" transform="matrix(1,0,0,1,0.18069263499958765,-0.10000091547996703)"><svg viewBox="0 0 343.63859084623135 247.2" height="247.2" width="343.63859084623135"><g><svg viewBox="0 0 395.52 284.5214321221288" height="247.2" width="343.63859084623135"><g transform="matrix(1,0,0,1,0,211.69797376849996)"><svg viewBox="0 0 395.52 72.82345835362884" height="72.82345835362884" width="395.52"><g id="textblocktransform"><svg viewBox="0 0 395.52 72.82345835362884" height="72.82345835362884" width="395.52" id="textblock"><g><svg viewBox="0 0 395.52 72.82345835362884" height="72.82345835362884" width="395.52"><g transform="matrix(1,0,0,1,0,0)"><svg width="395.52" viewBox="1.3200000524520874 -35.790000915527344 200.46998596191406 36.90999984741211" height="72.82345835362884" data-palette-color="#ffffff"><path d="M29.69-23.49L29.69-23.49Q29.69-21.12 28.98-19.29 28.27-17.46 27.04-16.09 25.81-14.72 24.15-13.77 22.49-12.82 20.59-12.22 18.7-11.62 16.67-11.34 14.65-11.06 12.7-11.04L12.7-11.04 12.7 0.34 1.32 0.34Q1.32-5.25 1.34-10.79 1.37-16.33 1.42-21.97L1.42-21.97Q1.46-24.95 1.44-27.93 1.42-30.91 1.56-33.94L1.56-33.94Q4.69-34.86 7.81-35.33 10.94-35.79 14.26-35.79L14.26-35.79Q16.14-35.79 18.02-35.49 19.9-35.18 21.62-34.52 23.34-33.86 24.82-32.87 26.29-31.88 27.37-30.52 28.44-29.15 29.06-27.4 29.69-25.66 29.69-23.49ZM18.85-22.66L18.85-22.66Q18.85-24.24 17.88-25.13 16.92-26.03 15.38-26.03L15.38-26.03Q14.87-26.03 14.32-25.94 13.77-25.85 13.28-25.73L13.28-25.73 12.99-18.6Q13.33-18.55 13.65-18.55 13.96-18.55 14.31-18.55L14.31-18.55Q15.19-18.55 16-18.85 16.82-19.14 17.46-19.69 18.09-20.24 18.47-20.98 18.85-21.73 18.85-22.66ZM31.22-33.69L44.21-34.38 41.53-1.12 31.22-0.59 31.22-33.69ZM45.09-34.86L71.7-34.91 71.45-24.56 64.18-24.27 62.32-1.12 52.02-0.59 52.07-23.73 44.79-23.34 45.09-34.86ZM101.48-23.49L101.48-23.49Q101.48-21.12 100.77-19.29 100.07-17.46 98.83-16.09 97.6-14.72 95.94-13.77 94.28-12.82 92.39-12.22 90.5-11.62 88.47-11.34 86.44-11.06 84.49-11.04L84.49-11.04 84.49 0.34 73.11 0.34Q73.11-5.25 73.14-10.79 73.16-16.33 73.21-21.97L73.21-21.97Q73.26-24.95 73.23-27.93 73.21-30.91 73.36-33.94L73.36-33.94Q76.48-34.86 79.61-35.33 82.73-35.79 86.05-35.79L86.05-35.79Q87.93-35.79 89.81-35.49 91.69-35.18 93.41-34.52 95.13-33.86 96.61-32.87 98.09-31.88 99.16-30.52 100.24-29.15 100.86-27.4 101.48-25.66 101.48-23.49ZM90.64-22.66L90.64-22.66Q90.64-24.24 89.68-25.13 88.71-26.03 87.18-26.03L87.18-26.03Q86.66-26.03 86.11-25.94 85.56-25.85 85.08-25.73L85.08-25.73 84.78-18.6Q85.12-18.55 85.44-18.55 85.76-18.55 86.1-18.55L86.1-18.55Q86.98-18.55 87.8-18.85 88.62-19.14 89.25-19.69 89.89-20.24 90.26-20.98 90.64-21.73 90.64-22.66ZM132.02-27.15L132.02-27.15Q132.02-25.34 131.85-23.17 131.68-21 131.29-18.68 130.9-16.36 130.28-13.98 129.65-11.6 128.73-9.4 127.8-7.2 126.56-5.29 125.33-3.37 123.73-1.94 122.13-0.51 120.16 0.31 118.18 1.12 115.76 1.12L115.76 1.12Q112.93 1.12 110.84 0.21 108.75-0.71 107.27-2.26 105.78-3.81 104.82-5.87 103.87-7.93 103.33-10.24 102.8-12.55 102.59-14.95 102.38-17.36 102.38-19.58L102.38-19.58Q102.38-23 102.72-26.4 103.07-29.81 103.7-33.2L103.7-33.2 115.13-32.76Q114.47-28.93 113.99-25.06 113.52-21.19 113.52-17.29L113.52-17.29Q113.52-16.87 113.55-16.05 113.59-15.23 113.69-14.22 113.78-13.21 113.97-12.15 114.15-11.08 114.47-10.21 114.78-9.33 115.24-8.76 115.69-8.2 116.3-8.2L116.3-8.2Q117.01-8.2 117.57-8.87 118.13-9.55 118.56-10.67 118.98-11.79 119.3-13.26 119.62-14.72 119.84-16.31 120.06-17.9 120.19-19.48 120.33-21.07 120.41-22.44 120.5-23.8 120.52-24.85 120.55-25.9 120.55-26.42L120.55-26.42Q120.55-28.32 120.49-30.21 120.42-32.1 120.3-33.98L120.3-33.98 131.73-33.98Q132.02-30.62 132.02-27.15ZM133.17-34.86L159.78-34.91 159.53-24.56 152.26-24.27 150.4-1.12 140.1-0.59 140.15-23.73 132.87-23.34 133.17-34.86ZM161.31-33.69L174.3-34.38 171.62-1.12 161.31-0.59 161.31-33.69ZM175.18-34.86L201.79-34.91 201.55-24.56 194.27-24.27 192.41-1.12 182.11-0.59 182.16-23.73 174.88-23.34 175.18-34.86Z" opacity="1" transform="matrix(1,0,0,1,0,0)" fill="#ffffff" class="undefined-text-0" data-fill-palette-color="primary" id="text-0"></path></svg></g></svg></g></svg></g></svg></g><g transform="matrix(1,0,0,1,109.1028838700413,0)"><svg viewBox="0 0 177.3142322599174 177.3142322599174" height="177.3142322599174" width="177.3142322599174"><g><svg></svg></g><g id="icon-0"><svg viewBox="0 0 177.3142322599174 177.3142322599174" height="177.3142322599174" width="177.3142322599174"><g><path d="M0 88.657c0-48.964 39.693-88.657 88.657-88.657 48.964 0 88.657 39.693 88.657 88.657 0 48.964-39.693 88.657-88.657 88.657-48.964 0-88.657-39.693-88.657-88.657zM88.657 170.747c45.337 0 82.09-36.753 82.09-82.09 0-45.337-36.753-82.09-82.09-82.09-45.337 0-82.09 36.753-82.09 82.09 0 45.337 36.753 82.09 82.09 82.09z" data-fill-palette-color="accent" fill="#ffffff" stroke="transparent"></path><ellipse rx="87.77054496865911" ry="87.77054496865911" cx="88.6571161299587" cy="88.6571161299587" fill="#ffffff" stroke="transparent" stroke-width="0" fill-opacity="1" data-fill-palette-color="accent"></ellipse></g><g transform="matrix(1,0,0,1,37.35140620480702,44.747063296819974)"><svg viewBox="0 0 102.61141985030335 87.82010566627744" height="87.82010566627744" width="102.61141985030335"><g><svg xmlns="http://www.w3.org/2000/svg" xmlns:xlink="http://www.w3.org/1999/xlink" version="1.1" x="0" y="0" viewBox="0.4997415840625763 0.1810150146484375 111.0005874633789 94.99998474121094" enable-background="new 0 0 111 95" xml:space="preserve" width="102.61141985030335" height="87.82010566627744" class="icon-s-0" data-fill-palette-color="quaternary" id="s-0"><g fill="#0dcaf0" data-fill-palette-color="quaternary"><g fill="#0dcaf0" data-fill-palette-color="quaternary"><path fill="#0dcaf0" d="M104.343 59.979h-0.009c4.685-6.157 7.313-13.35 7.16-20.989C111.063 17.007 87.805-0.362 59.553 0.194 31.301 0.749 8.751 19.021 9.183 40.999c0.008 0.403 0.023 0.804 0.048 1.204l1.382-0.889c-0.006-0.122 7.458-3.969 7.458-4.091 0-15.986 23.184-31.354 41.478-31.354 16.493 0 44.731 9.461 44.731 33.198-0.001 7.173-4.12 14.362-8.574 20.141-3.728 5.777 0.721 18.79 0.721 18.79l-14.634-7.79c-3.827 1.192-9.75 1.75-11.375 2.209-1.959 4.583-5.001 7.155-5.001 7.155 5.152-0.36 9.128-1.237 13.731-2.69l25.925 11.143C105.072 88.024 96.293 70.293 104.343 59.979zM35.457 36.076C16.445 35.702 0.795 47.391 0.504 62.185c-0.103 5.14 1.667 9.98 4.817 14.123H5.316c5.416 6.94-0.491 18.873-0.491 18.873l17.446-7.498c3.76 1.187 7.846 1.876 12.127 1.961 19.012 0.374 34.662-11.314 34.954-26.108C69.644 48.745 54.469 36.45 35.457 36.076z" data-fill-palette-color="quaternary"></path></g></g></svg></g></svg></g></svg></g></svg></g><g></g></svg></g><defs></defs></svg><rect width="343.63859084623135" height="247.2" fill="none" stroke="none" visibility="hidden"></rect></g></svg></g></svg>